<svg width="174" height="58" viewBox="0 0 174 58" fill="none" xmlns="http://www.w3.org/2000/svg">
<path d="M66.4682 31.8185L62.3271 28.9942C60.7101 27.854 60.0043 26.8134 60.0043 25.5754C60.0043 23.9892 61.3183 22.9996 63.1864 22.9996C65.5611 22.9996 66.6716 24.089 68.0852 24.089C69.1957 24.089 69.9534 23.3458 69.9534 22.2564C69.9534 21.4643 69.5486 20.8188 68.4879 20.324C66.8211 19.532 65.0027 19.2347 63.0328 19.2347C60.9612 19.2347 59.1429 19.8292 57.831 20.8209C57.5777 21.0184 57.3266 21.2179 57.0733 21.4643C55.558 23.0505 54.296 25.3779 53.2851 28.6481L52.1227 32.413C50.0511 39.0531 46.7693 42.2235 41.6671 42.2235C36.0605 42.2235 32.5255 38.4076 32.5255 32.7612C32.5255 27.1128 36.0605 23.248 41.1627 23.248C41.3848 23.248 41.6007 23.2542 41.8145 23.2664C41.8394 23.2684 41.8664 23.2684 41.8913 23.2704C42.0823 23.2806 42.2712 23.2969 42.4559 23.3173C42.4871 23.3213 42.5182 23.3234 42.5493 23.3275C42.7341 23.3478 42.9147 23.3743 43.0932 23.4028C43.1202 23.4069 43.1471 23.4109 43.1741 23.415C43.363 23.4476 43.5478 23.4822 43.7304 23.5229C43.745 23.527 43.7595 23.529 43.772 23.5311C44.569 23.7103 45.3101 23.9689 46.0138 24.2906C46.6697 24.5879 47.226 24.6876 47.7304 24.6876C48.9426 24.6876 49.7501 23.8956 49.7501 22.7064C49.7501 21.9632 49.2955 21.22 48.2348 20.7252C46.3147 19.7845 43.8404 19.2387 41.1627 19.2387C33.1815 19.2387 27.6766 24.7874 27.6766 32.863C27.6766 34.9888 28.0627 36.9395 28.785 38.6581C27.7368 40.8938 26.1343 42.0789 24.0399 42.0789C21.5137 42.0789 19.8469 40.6414 19.8469 37.3712V23.3987H25.7565C27.1203 23.3987 28.0295 22.6066 28.0295 21.4664C28.0295 20.3261 27.1203 19.534 25.7565 19.534H19.8489V14.4781C19.8489 12.9917 18.8381 12 17.4245 12C16.0109 12 15 12.9917 15 14.4781V24.2885V37.9128C15 43.3638 18.1821 46.2369 23.5853 46.2369C24.7975 46.2369 25.9081 46.0393 26.9189 45.6912C28.6896 45.0396 30.1114 43.8932 31.1161 42.252C33.5157 44.7952 37.0777 46.2857 41.5156 46.2857C43.8384 46.2857 45.8601 45.8398 47.6785 44.8991C51.365 43.0156 53.9929 39.2018 55.8113 33.3558L56.872 29.937C57.5798 30.8635 58.57 31.7492 59.9026 32.6614L63.6908 35.2372C65.4075 36.4264 66.1153 37.418 66.1153 38.8536C66.1153 40.9834 64.3987 42.421 61.9223 42.421C59.5476 42.421 57.5279 41.2319 56.4174 41.2319C55.3069 41.2319 54.5492 41.9751 54.5492 43.0644C54.5492 43.8565 54.954 44.502 56.0147 44.9968C57.4802 45.6912 59.8528 46.2857 61.9742 46.2857C64.6519 46.2857 66.873 45.4936 68.4401 44.1049C69.8537 42.816 70.7131 40.9834 70.7131 38.8536C70.711 35.8827 69.4988 33.8995 66.4682 31.8185Z" fill="white"/>
<path d="M79.9894 20.5377H83.3938V14.4575H85.809V12H77.5742V14.4575H79.9894V20.5377Z" fill="white"/>
<path d="M88.32 20.5377L90.0553 15.432L91.7879 20.5377H95.1183L91.854 12H88.2538L84.9922 20.5377H88.32Z" fill="white"/>
<path d="M96.7159 20.5377H100.12V14.4575H102.535V12H94.3008V14.4575H96.7159V20.5377Z" fill="white"/>
<path d="M105.039 20.5377L106.774 15.432L108.507 20.5377H111.837L108.575 12H104.973L101.711 20.5377H105.039Z" fill="white"/>
<path d="M137.713 26.6455C138.134 27.612 138.689 28.6581 139.242 29.5902L141.469 33.3453H143.083V24.8076H141.641V27.7868C141.641 29.0924 141.67 30.1914 141.782 31.3248L141.752 31.3327C141.358 30.4059 140.864 29.4128 140.3 28.4727L138.097 24.8076H136.316V33.3453H137.755V30.292C137.755 28.8911 137.734 27.763 137.673 26.6534L137.713 26.6455Z" fill="white"/>
<path d="M129.988 30.9328H132.697L133.469 33.3453H135.141L132.372 24.8076H130.39L127.652 33.3453H129.263L129.988 30.9328ZM130.901 27.6465C131.052 27.138 131.181 26.5475 131.305 26.047H131.332C131.462 26.5422 131.602 27.1248 131.763 27.6518L132.435 29.7571H130.237L130.901 27.6465Z" fill="white"/>
<path d="M104.591 32.187C103.797 32.187 103.033 31.9327 102.53 31.6415L102.184 32.9338C102.649 33.2198 103.586 33.4793 104.488 33.4793C106.688 33.4793 107.723 32.2876 107.723 30.9132C107.723 29.6871 107.011 28.9403 105.53 28.3763C104.392 27.942 103.898 27.6321 103.898 26.978C103.898 26.4749 104.318 25.9505 105.308 25.9505C106.109 25.9505 106.704 26.1942 107.011 26.3557L107.384 25.0978C106.94 24.8727 106.263 24.6768 105.339 24.6768C103.49 24.6768 102.321 25.7307 102.321 27.129C102.321 28.3524 103.22 29.1098 104.63 29.6103C105.707 30.0022 106.141 30.3836 106.141 31.0271C106.141 31.7209 105.583 32.187 104.591 32.187Z" fill="white"/>
<path d="M82.2061 25.9628C82.9018 25.9628 83.4706 26.1164 83.8674 26.2965L84.206 25.0545C83.8885 24.8824 83.1664 24.6758 82.14 24.6758C79.5344 24.6758 77.5742 26.3706 77.5742 29.1777C77.5742 31.7755 79.2222 33.481 81.9284 33.481C82.96 33.481 83.7721 33.277 84.1398 33.0917L83.8832 31.8629C83.4732 32.0483 82.8145 32.1728 82.1823 32.1728C80.3068 32.1728 79.2143 30.9811 79.2143 29.0982C79.2143 27.0486 80.4655 25.9628 82.2061 25.9628Z" fill="white"/>
<path d="M125.752 33.3453V26.1185H128.21V24.8076H121.758V26.1185H124.194V33.3453H125.752Z" fill="white"/>
<path d="M156.888 24.8076L155.861 26.995C155.57 27.6147 155.335 28.1443 155.123 28.6899H155.097C154.864 28.1126 154.642 27.6253 154.353 26.9977L153.338 24.8076H151.555L154.253 29.7915V33.3453H155.811V29.7491L158.644 24.8103H156.888V24.8076Z" fill="white"/>
<path d="M88.7128 24.669C86.3056 24.669 84.6523 26.52 84.6523 29.1417C84.6523 31.6416 86.176 33.4874 88.5885 33.4874H88.6017C90.9375 33.4874 92.6702 31.8508 92.6702 28.9908C92.6649 26.5492 91.1994 24.669 88.7128 24.669ZM88.652 32.2374H88.6388C87.1495 32.2374 86.2792 30.8021 86.2845 29.1046C86.2818 27.4019 87.1019 25.9163 88.6573 25.9163C90.2127 25.9163 91.0116 27.4389 91.0116 29.049C91.0089 30.8339 90.1572 32.2374 88.652 32.2374Z" fill="white"/>
<path d="M149.062 25.9628C149.757 25.9628 150.326 26.1164 150.723 26.2965L151.061 25.0545C150.744 24.8824 150.022 24.6758 148.995 24.6758C146.39 24.6758 144.43 26.3706 144.43 29.1777C144.43 31.7755 146.078 33.481 148.784 33.481C149.815 33.481 150.628 33.2797 150.995 33.0917L150.739 31.8629C150.329 32.0483 149.67 32.1728 149.038 32.1728C147.162 32.1728 146.07 30.9811 146.07 29.0982C146.07 27.0486 147.321 25.9628 149.062 25.9628Z" fill="white"/>
<path d="M119.107 24.8076H117.549V33.3453H122.615V32.0371H119.107V24.8076Z" fill="white"/>
<path d="M115.776 29.6839V24.8086H114.218V29.7872C114.218 31.4608 113.543 32.2314 112.422 32.2314C111.366 32.2314 110.673 31.4555 110.673 29.7872V24.8086H109.115V29.6945C109.115 32.3797 110.398 33.4893 112.364 33.4893C114.424 33.4867 115.776 32.3135 115.776 29.6839Z" fill="white"/>
<path d="M100.78 24.8076H99.3386V27.7868C99.3386 29.0924 99.3677 30.1914 99.4788 31.3248L99.4497 31.3327C99.0556 30.4059 98.5609 29.4128 97.9975 28.4727L95.7939 24.8076H94.0137V33.3453H95.4554V30.292C95.4554 28.8911 95.4342 27.763 95.3733 26.6561L95.413 26.6481C95.8336 27.6147 96.3891 28.6607 96.942 29.5929L99.1693 33.348H100.783V24.8076H100.78Z" fill="white"/>
<path d="M107.441 37.6123H105.883V46.15H107.441V37.6123Z" fill="white"/>
<path d="M95.1666 42.146V42.1116C95.9629 41.8282 96.7036 41.0867 96.7036 39.9957C96.7036 39.2701 96.439 38.6822 95.9761 38.2956C95.4047 37.8189 94.4207 37.6123 93.3652 37.6123C92.3097 37.6123 91.6114 37.6865 91.0215 37.7951V46.15H92.5557V42.6677H93.3335C94.2117 42.6889 94.6138 43.0464 94.8571 44.1506C95.0926 45.2046 95.2963 45.9037 95.4259 46.15H97.0131C96.8438 45.819 96.6136 44.8471 96.3464 43.7879C96.1348 42.9643 95.7804 42.379 95.1666 42.146ZM93.471 41.5316H92.5557V38.8543C92.7118 38.8146 93.0266 38.7775 93.516 38.7775C94.5159 38.7802 95.164 39.2118 95.164 40.136C95.164 40.9781 94.5186 41.5316 93.471 41.5316Z" fill="white"/>
<path d="M102.069 41.5154C101.738 42.5509 101.429 43.5942 101.201 44.6005H101.175C100.952 43.5678 100.661 42.5694 100.339 41.4916L99.1748 37.6094H97.4766L100.236 46.1471H102.021L104.968 37.6094H103.309L102.069 41.5154Z" fill="white"/>
<path d="M118.222 42.3605H121.436V41.0894H118.222V38.894H121.627V37.6123H116.664V46.1474H121.814V44.8657H118.222V42.3605Z" fill="white"/>
<path d="M113.409 38.7636C114.105 38.7636 114.674 38.9172 115.07 39.0973L115.409 37.8553C115.092 37.6831 114.37 37.4766 113.343 37.4766C110.738 37.4766 108.777 39.1714 108.777 41.9785C108.777 44.5763 110.425 46.2817 113.132 46.2817C114.163 46.2817 114.975 46.0805 115.343 45.8925L115.086 44.6637C114.674 44.8491 114.018 44.9735 113.385 44.9735C111.51 44.9735 110.417 43.7819 110.417 41.899C110.417 39.8493 111.669 38.7636 113.409 38.7636Z" fill="white"/>
<path d="M80.9192 41.1761C79.7791 40.7418 79.2871 40.4319 79.2871 39.7778C79.2871 39.2747 79.7077 38.7504 80.6944 38.7504C81.4959 38.7504 82.0911 38.994 82.3979 39.1555L82.7709 37.8976C82.3265 37.6726 81.6493 37.4766 80.7261 37.4766C78.8771 37.4766 77.7079 38.5306 77.7079 39.9288C77.7079 41.1522 78.6073 41.9096 80.0172 42.4101C81.0938 42.802 81.5276 43.1834 81.5276 43.8269C81.5276 44.526 80.9721 44.9921 79.9775 44.9921C79.1839 44.9921 78.4194 44.7379 77.9168 44.4466L77.5703 45.7389C78.0359 46.0249 78.9723 46.2844 79.8743 46.2844C82.0752 46.2844 83.1095 45.0927 83.1095 43.7183C83.1122 42.4869 82.4006 41.7401 80.9192 41.1761Z" fill="white"/>
<path d="M86.0717 42.3605H89.2858V41.0894H86.0717V38.894H89.4789V37.6123H84.5137V46.1474H89.6667V44.8657H86.0717V42.3605Z" fill="white"/>
<path d="M126.148 41.1761C125.01 40.7418 124.516 40.4319 124.516 39.7778C124.516 39.2747 124.936 38.7504 125.923 38.7504C126.724 38.7504 127.32 38.994 127.626 39.1555L127.999 37.8976C127.555 37.6726 126.878 37.4766 125.955 37.4766C124.106 37.4766 122.936 38.5306 122.936 39.9288C122.936 41.1522 123.836 41.9096 125.246 42.4101C126.322 42.802 126.756 43.1834 126.756 43.8269C126.756 44.526 126.201 44.9921 125.206 44.9921C124.412 44.9921 123.648 44.7379 123.145 44.4466L122.799 45.7389C123.264 46.0249 124.201 46.2844 125.103 46.2844C127.304 46.2844 128.338 45.0927 128.338 43.7183C128.341 42.4869 127.629 41.7401 126.148 41.1761Z" fill="white"/>
</svg>
